<svg xmlns="http://www.w3.org/2000/svg"><symbol fill="none" id="icon-aboutCompanyTodayBanner_play_video" viewBox="0 0 37 38"><title>aboutCompanyTodayBanner_play_video</title><path d="M8.077 33.153a1.154 1.154 0 0 1-1.154-1.154V6.615a1.154 1.154 0 0 1 1.71-1.011L31.71 18.296a1.154 1.154 0 0 1 0 2.022L8.633 33.01a1.15 1.15 0 0 1-.556.143Z" fill="#202020"/></symbol><symbol fill="none" id="icon-account-password" viewBox="0 0 32 32"><title>account-password</title><path d="M25.333 13.333H6.667A2.667 2.667 0 0 0 4 16v10.666a2.667 2.667 0 0 0 2.667 2.667h18.666A2.667 2.667 0 0 0 28 26.666V16a2.667 2.667 0 0 0-2.667-2.667ZM8 8a4 4 0 0 1 4-4h8a4 4 0 0 1 4 4v5.333H8V8Z" stroke="#202020" stroke-width="2.2" stroke-linecap="round" stroke-linejoin="round"/></symbol><symbol fill="none" id="icon-accountForm-radio" viewBox="0 0 32 33"><title>accountForm-radio</title><path d="m12 22.547-5.6-5.612-1.867 1.87L12 26.29l16-16.035-1.867-1.871L12 22.547Z" fill="#202020"/></symbol><symbol fill="none" id="icon-arrow-down" viewBox="0 0 22 22"><title>arrow-down</title><path d="m3.555 8 7.11 7.111 7.112-7.11" stroke="#202020" stroke-width="2" stroke-linecap="round" stroke-linejoin="round"/></symbol><symbol fill="none" id="icon-bg-zenit-big" viewBox="0 0 1100 720"><title>bg-zenit-big</title><path d="m0 681.475 100.505-84.57H.928v-46.5h190.077v38.292L86.08 673.04h105.854v46.958H0v-38.523Zm427.854-90.042H317.577v21.657h106.785v42.172H317.577v23.248h111.905v41.488H254.995V550.405h172.859v41.028Zm125.637 128.565h-61.186V550.403h63.978l93.294 94.83v-94.83h61.187v169.595h-60.258l-97.015-97.793v97.793Zm224.283-169.593h62.817V720h-62.817V550.405Zm120.982 46.727v-46.728H1100v46.728h-69.33v122.866h-62.587V597.132h-69.327Zm55.736-214.01H550.951l-.114-.064-.112.064H147.184l100.942-171.411 302.708 171.343.003.004.007-.004 302.708-171.343 100.94 171.411ZM323.917 82.398h451.946l27.96 48.049-253.142 143.094-254.358-144.035 27.594-47.108Zm775.993 130.648-48.93-83.306h-149.3L824.69 0H274.858l-76.289 129.315H48.858L.089 211.974h149.816L.425 465.998c366.277.055 732.553.109 1098.835.16-49.58-84.368-99.16-168.742-148.748-253.112h149.398Z" opacity=".4" fill="#fff"/></symbol><symbol fill="none" id="icon-checkbox-account-done" viewBox="0 0 14 12"><title>checkbox-account-done</title><path d="m4.155 10.649-.086-.086-.313-.313-1.001-1.002L.761 7.254a.437.437 0 0 1 .618-.618l2.764 2.763.353.353.354-.353 7.778-7.77.007-.007.006-.006a.436.436 0 0 1 .72.476.437.437 0 0 1-.102.142l-.006.006-.006.006-.002.001-8.442 8.432a.438.438 0 0 1-.618 0l-.002-.002-.006-.006-.022-.022Z" fill="#000" stroke="#000"/></symbol><symbol fill="none" id="icon-checkbox-account-full" viewBox="0 0 24 24"><title>checkbox-account-full</title><path d="m18.26 8.234-.007.006-.006.006-.002.001-8.442 8.432a.437.437 0 0 1-.618 0L5.76 13.254a.438.438 0 0 1 .618-.618l2.764 2.763.353.353.354-.353 7.778-7.77.007-.007.006-.006a.439.439 0 0 1 .72.476.437.437 0 0 1-.102.142ZM2.292 2.294a3.563 3.563 0 0 1 2.52-1.044h14.375a3.563 3.563 0 0 1 3.562 3.563v14.375a3.563 3.563 0 0 1-3.563 3.562H4.813a3.562 3.562 0 0 1-3.562-3.563V4.813c0-.944.375-1.85 1.043-2.519Zm2.52-.169a2.688 2.688 0 0 0-2.688 2.688v14.375a2.687 2.687 0 0 0 2.688 2.687h14.375a2.687 2.687 0 0 0 2.687-2.688V4.813a2.688 2.688 0 0 0-2.688-2.687H4.813Z" fill="#000" stroke="#000"/></symbol><symbol fill="none" id="icon-checkbox-checked" viewBox="0 0 12 9"><title>checkbox-checked</title><path d="M4.5 8.125.75 4.405 1.942 3.25 4.5 5.763 10.057.25l1.193 1.185-6.75 6.69Z" fill="#0F0F0F"/></symbol><symbol fill="none" id="icon-circle-arrow-black" viewBox="0 0 10 18"><title>circle-arrow-black</title><path d="M1.332 16.11 8.443 9l-7.11-7.111" stroke-width="2" stroke-linecap="round" stroke-linejoin="round"/></symbol><symbol fill="none" id="icon-closeX" viewBox="0 0 22 22"><title>closeX</title><path d="m18.685.63-7.779 7.778L3.13.63.537 3.223 8.314 11 .537 18.777l2.592 2.592 7.777-7.777 7.78 7.777 2.592-2.592L13.5 11l7.777-7.777L18.685.63Z" fill="#fff"/></symbol><symbol id="icon-download-icon" viewBox="0 0 14 15"><title>download-icon</title><path d="M13.5 13.48H.5c-.133 0-.26.05-.354.137a.452.452 0 0 0-.146.33c0 .124.053.243.146.33a.518.518 0 0 0 .354.137h13a.52.52 0 0 0 .353-.137.451.451 0 0 0 .147-.33.452.452 0 0 0-.147-.33.518.518 0 0 0-.353-.137Zm-6.025-2L12.78 6.7a.424.424 0 0 0 .12-.31.43.43 0 0 0-.147-.302.527.527 0 0 0-.334-.131.535.535 0 0 0-.344.108l-4.1 3.69V.45a.43.43 0 0 0-.147-.319A.53.53 0 0 0 7.475 0a.53.53 0 0 0-.354.132.43.43 0 0 0-.146.319v9.304L2.88 6.065a.497.497 0 0 0-.162-.113.545.545 0 0 0-.572.087.45.45 0 0 0-.112.154.41.41 0 0 0 .016.36.46.46 0 0 0 .125.147l5.3 4.78Z"/></symbol><symbol fill="none" id="icon-footerColumnTitle_mob" viewBox="0 0 18 18"><title>footerColumnTitle_mob</title><path d="M8.473 2.672h1.054c.094 0 .141.047.141.14v12.376c0 .093-.047.14-.14.14H8.472c-.094 0-.141-.047-.141-.14V2.812c0-.093.047-.14.14-.14Z" fill="#fff"/><path d="M3.094 8.332h11.812c.094 0 .14.047.14.14v1.055c0 .094-.046.141-.14.141H3.094c-.094 0-.14-.047-.14-.14V8.472c0-.094.046-.141.14-.141Z" fill="#fff"/></symbol><symbol fill="none" id="icon-footerContacts_mail" viewBox="0 0 40 40"><title>footerContacts_mail</title><circle cx="20" cy="20" r="20" fill="#F8F8F8"/><path d="M10.375 13.125 20 20l9.625-6.875m-19.25 13.75h19.25v-13.75h-19.25v13.75Z" stroke="#202020" stroke-linecap="round" stroke-linejoin="round"/></symbol><symbol fill="none" id="icon-footerContacts_Map" viewBox="0 0 40 40"><title>footerContacts_Map</title><circle cx="20" cy="20" r="20" fill="#F8F8F8"/><path d="M25.665 13.354A7.99 7.99 0 0 0 20.005 11a7.99 7.99 0 0 0-5.66 2.354A8.053 8.053 0 0 0 12 19.037a8.05 8.05 0 0 0 2.345 5.682l4.971 5a.944.944 0 0 0 1.033.208.943.943 0 0 0 .307-.207l5.01-5.048A8.019 8.019 0 0 0 28 19.012c0-2.122-.84-4.157-2.335-5.658Zm-1.349 9.963-4.311 4.348-4.311-4.348a6.14 6.14 0 0 1-1.319-6.667 6.113 6.113 0 0 1 2.245-2.744 6.078 6.078 0 0 1 6.77 0 6.113 6.113 0 0 1 2.245 2.744 6.14 6.14 0 0 1-1.319 6.667Zm-7.141-7.188a4.1 4.1 0 0 0 0 5.777 4.061 4.061 0 0 0 4.412.896 4.07 4.07 0 0 0 1.828-1.485 4.09 4.09 0 0 0 .703-2.252 4.03 4.03 0 0 0-1.189-2.889 4.055 4.055 0 0 0-2.867-1.225 4.043 4.043 0 0 0-2.887 1.178Zm4.424 4.432a2.195 2.195 0 0 1-3.667-.9 2.215 2.215 0 0 1 1.062-2.593 2.19 2.19 0 0 1 2.74.546c.322.396.498.892.497 1.403a2.21 2.21 0 0 1-.679 1.544h.047Z" fill="#202020"/></symbol><symbol fill="none" id="icon-footerContacts_tel" viewBox="0 0 40 40"><title>footerContacts_tel</title><circle cx="20" cy="20" r="20" fill="#F8F8F8"/><path d="M25.405 29.689c-.186 0-.373-.021-.555-.061a18.838 18.838 0 0 1-9.234-4.861 18.173 18.173 0 0 1-5-9.028 2.545 2.545 0 0 1 .75-2.378l2.223-2.139a1.11 1.11 0 0 1 .855-.3 1.11 1.11 0 0 1 .806.484l2.778 4.105a.89.89 0 0 1-.061 1.056l-1.395 1.666a10.524 10.524 0 0 0 2.317 3.273 10.7 10.7 0 0 0 3.372 2.272l1.728-1.372a.91.91 0 0 1 1.033-.067l4.195 2.711a1.11 1.11 0 0 1 .227 1.728l-2.166 2.144a2.635 2.635 0 0 1-1.873.767Zm-11.05-17.667-2.222 2.14a1.411 1.411 0 0 0-.416 1.332 17.056 17.056 0 0 0 4.672 8.478 17.722 17.722 0 0 0 8.689 4.572 1.527 1.527 0 0 0 1.389-.41l2.166-2.145-4.05-2.617-1.855 1.478a.555.555 0 0 1-.512.095 11.145 11.145 0 0 1-4.088-2.64 10.827 10.827 0 0 1-2.706-4 .555.555 0 0 1 .133-.527l1.5-1.795-2.7-3.96Z" fill="#202020"/></symbol><symbol fill="none" id="icon-footerSocial_tg" viewBox="0 0 20 20"><title>footerSocial_tg</title><path fill-rule="evenodd" clip-rule="evenodd" d="M20 10c0 5.523-4.477 10-10 10-5.522 0-10-4.477-10-10C0 4.478 4.478 0 10 0c5.523 0 10 4.478 10 10Zm-9.642-2.617c-.972.404-2.916 1.241-5.831 2.511-.474.188-.722.373-.744.553-.039.305.343.425.861.587l.22.07c.51.166 1.197.36 1.554.368.324.006.685-.127 1.085-.4 2.723-1.84 4.129-2.769 4.217-2.789.063-.014.15-.032.207.02.059.052.053.15.047.177-.038.16-1.533 1.552-2.308 2.272-.242.224-.413.383-.448.42-.078.08-.158.158-.235.232-.475.457-.83.8.02 1.36.409.27.735.492 1.061.713.356.243.711.485 1.171.786.117.077.228.156.338.234.414.296.786.56 1.246.519.267-.025.543-.276.683-1.025.331-1.772.983-5.608 1.134-7.19a1.795 1.795 0 0 0-.017-.394.422.422 0 0 0-.143-.27.649.649 0 0 0-.388-.117c-.375.007-.952.208-3.73 1.363Z" fill="#fff"/></symbol><symbol fill="none" id="icon-footerSocial_vk" viewBox="0 0 20 20"><title>footerSocial_vk</title><path d="M7.907.003 8.515 0h2.97l.608.003.762.008.36.006.35.009.335.011.323.014.312.017.3.021.287.025.278.028c1.45.163 2.444.513 3.194 1.263.75.75 1.1 1.743 1.264 3.194l.028.278.024.288.02.3.018.31.02.49.01.343.011.536.008.763.003.816v2.761l-.003.608-.009.762-.005.361-.01.348-.011.336-.014.324-.017.311-.021.3-.025.288-.027.277c-.164 1.45-.514 2.444-1.264 3.194s-1.743 1.1-3.194 1.264l-.277.028-.289.024-.3.021-.31.017-.49.02-.342.01-.537.011-.763.008-.816.003H8.515l-.608-.003-.762-.008-.36-.006-.35-.01-.335-.011-.323-.013-.312-.018-.3-.02-.287-.026-.278-.027c-1.45-.164-2.444-.514-3.194-1.264S.306 16.85.143 15.4l-.029-.277-.024-.289-.02-.3-.018-.31-.02-.49-.01-.342-.011-.537-.008-.762L0 11.275v-2.76l.003-.61.009-.76.006-.362.009-.348.011-.336.014-.323.017-.312.021-.3.025-.287.027-.278c.164-1.45.514-2.444 1.264-3.194S3.149.305 4.6.142l.278-.029.288-.024.3-.02.31-.017.49-.021.342-.01.537-.011.763-.007Zm-2.249 6.08H3.375c.108 5.2 2.708 8.325 7.267 8.325h.258v-2.976c1.675.167 2.942 1.392 3.45 2.976h2.367c-.65-2.367-2.359-3.675-3.425-4.175 1.066-.617 2.566-2.117 2.925-4.15h-2.15c-.467 1.65-1.85 3.15-3.167 3.291V6.082H8.75v5.767c-1.333-.333-3.017-1.95-3.092-5.767Z" fill="#fff"/></symbol><symbol fill="none" id="icon-headerSocial_tg" viewBox="0 0 20 20"><title>headerSocial_tg</title><path fill-rule="evenodd" clip-rule="evenodd" d="M20 10c0 5.523-4.477 10-10 10-5.522 0-10-4.477-10-10C0 4.478 4.478 0 10 0c5.523 0 10 4.478 10 10Zm-9.642-2.617c-.972.404-2.916 1.241-5.831 2.511-.474.188-.722.373-.744.553-.039.305.343.425.861.587l.22.07c.51.166 1.197.36 1.554.368.324.006.685-.127 1.085-.4 2.723-1.84 4.129-2.769 4.217-2.789.063-.014.15-.032.207.02.059.052.053.15.047.177-.038.16-1.533 1.552-2.308 2.272-.242.224-.413.383-.448.42-.078.08-.158.158-.235.232-.475.457-.83.8.02 1.36.409.27.735.492 1.061.713.356.243.711.485 1.171.786.117.077.228.156.338.234.414.296.786.56 1.246.519.267-.025.543-.276.683-1.025.331-1.772.983-5.608 1.134-7.19a1.795 1.795 0 0 0-.017-.394.422.422 0 0 0-.143-.27.649.649 0 0 0-.388-.117c-.375.007-.952.208-3.73 1.363Z" fill="#202020"/></symbol><symbol fill="none" id="icon-headerSocial_vk" viewBox="0 0 20 20"><title>headerSocial_vk</title><path d="M7.907.003 8.515 0h2.97l.608.003.762.008.36.006.35.009.335.011.323.014.312.017.3.021.287.025.278.028c1.45.163 2.444.513 3.194 1.263.75.75 1.1 1.743 1.264 3.194l.028.278.024.288.02.3.018.31.02.49.01.343.011.536.008.763.003.816v2.761l-.003.608-.009.762-.005.361-.01.348-.011.336-.014.324-.017.311-.021.3-.025.288-.027.277c-.164 1.45-.514 2.444-1.264 3.194s-1.743 1.1-3.194 1.264l-.277.028-.289.024-.3.021-.31.017-.49.02-.342.01-.537.011-.763.008-.816.003H8.515l-.608-.003-.762-.008-.36-.006-.35-.01-.335-.011-.323-.013-.312-.018-.3-.02-.287-.026-.278-.027c-1.45-.164-2.444-.514-3.194-1.264S.306 16.85.143 15.4l-.029-.277-.024-.289-.02-.3-.018-.31-.02-.49-.01-.342-.011-.537-.008-.762L0 11.275v-2.76l.003-.61.009-.76.006-.362.009-.348.011-.336.014-.323.017-.312.021-.3.025-.287.027-.278c.164-1.45.514-2.444 1.264-3.194S3.149.305 4.6.142l.278-.029.288-.024.3-.02.31-.017.49-.021.342-.01.537-.011.763-.007Zm-2.249 6.08H3.375c.108 5.2 2.708 8.325 7.267 8.325h.258v-2.976c1.675.167 2.942 1.392 3.45 2.976h2.367c-.65-2.367-2.359-3.675-3.425-4.175 1.066-.617 2.566-2.117 2.925-4.15h-2.15c-.467 1.65-1.85 3.15-3.167 3.291V6.082H8.75v5.767c-1.333-.333-3.017-1.95-3.092-5.767Z" fill="#202020"/></symbol><symbol fill="none" id="icon-input-personal-data" viewBox="0 0 16 16"><title>input-personal-data</title><path d="M1.775 14.5h2.829l10.37-10.37-2.828-2.83-10.37 10.372V14.5Z" stroke="#202020" stroke-linejoin="round"/><path d="m9.318 4.129 2.829 2.829" stroke="#202020" stroke-linecap="round" stroke-linejoin="round"/></symbol><symbol id="icon-like-full" viewBox="0 0 19 17"><title>like-full</title><path fill-rule="evenodd" clip-rule="evenodd" d="M15.272 1.22c.576.236 1.1.58 1.542 1.014l.256.253a4.643 4.643 0 0 1 1.389 3.305c0 1.24-.5 2.429-1.39 3.306l-6.814 6.707-.716.743-.02-.02-.018.019-.764-.788L1.97 9.098A4.638 4.638 0 0 1 .58 5.792c0-1.24.5-2.428 1.39-3.305l.257-.252a4.756 4.756 0 0 1 1.54-1.014 4.816 4.816 0 0 1 3.636 0c.577.235 1.1.58 1.541 1.014l.004.003.57.572.577-.573c.44-.435.964-.78 1.54-1.015a4.817 4.817 0 0 1 3.638-.001Z"/></symbol><symbol id="icon-like" viewBox="0 0 19 18"><title>like</title><path fill-rule="evenodd" clip-rule="evenodd" d="M16.814 2.086A4.741 4.741 0 0 0 15.272 1a4.544 4.544 0 0 0-3.638.002c-.576.252-1.1.62-1.54 1.085l-.576.613-.571-.611-.004-.004a4.742 4.742 0 0 0-1.54-1.084 4.545 4.545 0 0 0-3.636 0c-.576.251-1.1.62-1.541 1.084l-.257.27A5.137 5.137 0 0 0 .58 5.89c0 1.326.5 2.598 1.39 3.536l6.768 7.123.764.843.019-.019.02.021.715-.795 6.815-7.174A5.143 5.143 0 0 0 18.46 5.89c0-1.326-.5-2.597-1.39-3.536l-.255-.27Zm-.584 6.457-6.71 7.063-6.711-7.063A3.852 3.852 0 0 1 1.766 5.89c0-.995.375-1.948 1.043-2.652l.256-.27A3.475 3.475 0 0 1 5.583 1.87c.945 0 1.85.394 2.519 1.096l1.413 1.516 1.42-1.514a3.555 3.555 0 0 1 1.156-.812 3.408 3.408 0 0 1 2.727 0c.432.188.825.464 1.156.812l.256.27a3.857 3.857 0 0 1 1.042 2.652 3.86 3.86 0 0 1-1.042 2.652Z" fill="red"/></symbol><symbol id="icon-logo" viewBox="0 0 81 55"><title>logo</title><path d="m0 52.057 7.4-6.46H.069v-3.553h13.997v2.926L6.34 51.413h7.794V55H0v-2.943Zm31.506-6.878h-8.12v1.654h7.862v3.221h-7.863v1.776h8.24V55H18.777V42.044h12.729v3.135ZM40.757 55h-4.505V42.045h4.71l6.87 7.244v-7.244h4.506V55h-4.437l-7.144-7.47V55Zm16.516-12.955h4.625V55h-4.626V42.045Zm8.908 3.569v-3.57H81v3.57h-5.105V55h-4.609v-9.386h-5.105Zm4.103-16.348H40.569l-.009-.004-.008.004H10.837l7.433-13.094 22.29 13.09 22.291-13.09 7.433 13.094ZM23.851 6.294h33.28l2.058 3.67-18.64 10.932-18.73-11.003 2.032-3.599Zm57.141 9.98L77.39 9.911H66.395L60.725 0H20.239l-5.617 9.878H3.597L.005 16.193h11.032L.03 35.597l80.914.013-10.953-19.336h11.001Z"/></symbol><symbol fill="none" id="icon-mainBanner-content-item-zenit-extended" viewBox="0 0 471 270"><title>mainBanner-content-item-zenit-extended</title><path d="m0 444.852 62.313-55.206H.576v-30.354h117.847v24.996l-65.054 55.057H119v30.654H0v-25.147Zm265.269-58.778h-68.371v14.137h66.206v27.529h-66.206v15.176h69.381v27.083H158.097V359.292h107.172v26.782Zm77.895 83.925h-37.935V359.291h39.667l57.842 61.903v-61.903h37.935v110.708h-37.359l-60.15-63.837v63.837ZM482.22 359.292h38.946V470H482.22V359.292Zm75.009 30.502v-30.502H682v30.502h-42.985v80.205h-38.803v-80.205h-42.983Zm34.556-139.701H341.59l-.071-.041-.07.041H91.254L153.838 138.2l187.679 111.849.002.003.004-.003L529.202 138.2l62.583 111.893ZM200.829 53.787h280.206l17.335 31.366-156.948 93.408L183.72 84.539l17.109-30.752Zm481.116 85.285-30.338-54.38h-92.565L511.308 0H170.412l-47.299 84.414H30.292L.055 138.372h92.886L.264 304.193c227.091.036 454.183.071 681.275.105l-92.221-165.226h92.627Z" fill="#fff"/></symbol><symbol fill="none" id="icon-mainBanner-content-item-zenit" viewBox="0 0 471 247"><title>mainBanner-content-item-zenit</title><path d="m0 444.852 62.313-55.206H.576v-30.354h117.847v24.996l-65.054 55.057H119v30.654H0v-25.147Zm265.269-58.778h-68.371v14.137h66.206v27.529h-66.206v15.176h69.381v27.083H158.097V359.292h107.172v26.782Zm77.895 83.925h-37.935V359.291h39.667l57.842 61.903v-61.903h37.935v110.708h-37.359l-60.15-63.837v63.837ZM482.22 359.292h38.946V470H482.22V359.292Zm75.009 30.502v-30.502H682v30.502h-42.985v80.205h-38.803v-80.205h-42.983Zm34.556-139.701H341.59l-.071-.041-.07.041H91.254L153.838 138.2l187.679 111.849.002.003.004-.003L529.202 138.2l62.583 111.893ZM200.829 53.787h280.206l17.335 31.366-156.948 93.408L183.72 84.539l17.109-30.752Zm481.116 85.285-30.338-54.38h-92.565L511.308 0H170.412l-47.299 84.414H30.292L.055 138.372h92.886L.264 304.193c227.091.036 454.183.071 681.275.105l-92.221-165.226h92.627Z" fill="#fff"/></symbol><symbol fill="none" id="icon-mainBanner-open-button" viewBox="0 0 20 20"><title>mainBanner-open-button</title><path d="M10 18.8V10m0 0V1.2m0 8.8h8.8M10 10H1.2" stroke-linecap="round"/></symbol><symbol fill="none" id="icon-mainCatalog_asideText-tab" viewBox="0 0 744 108"><title>mainCatalog_asideText-tab</title><path opacity=".13" d="m72.778 105-.717.698.295.302h.422v-1Zm43.146 0v1h2.381l-1.667-1.7-.714.7ZM59.806 47.754l-.667-.745-.779.698.732.747.714-.7ZM112.963.096l.668.745 1.945-1.745h-2.613v1Zm-40.89 0v-1h-.386l-.286.26.672.74ZM25.966 41.973h-1v2.26l1.672-1.52-.672-.74Zm0-41.877h1v-1h-1v1Zm-33.558 0v-1h-1v1h1Zm0 104.904h-1v1h1v-1Zm33.558 0v1h1v-1h-1Zm0-48.081.716-.698-1.716-1.763v2.461h1ZM72.778 106h43.146v-2H72.778v2Zm43.86-1.7L60.52 47.054l-1.428 1.4L115.21 105.7l1.428-1.4ZM60.474 48.499 113.63.84l-1.336-1.49-53.156 47.66 1.336 1.49ZM112.963-.904h-40.89v2h40.89v-2Zm-41.562.26L25.294 41.233l1.344 1.48L72.745.836l-1.344-1.48ZM26.966 41.973V.096h-2v41.877h2Zm-1-42.877H-7.592v2h33.558v-2Zm-34.558 1V105h2V.096h-2Zm1 105.904h33.558v-2H-7.592v2Zm34.558-1V56.919h-2V105h2ZM25.25 57.617l46.811 48.081 1.433-1.396-46.811-48.08-1.433 1.395ZM165.79 71.3l-.165-.986h-.003l.168.986Zm15.792-3.102h1v-1.297l-1.255.33.255.967Zm.846 26.508.945-.325-.559-1.628-1.137 1.292.751.661ZM221.627 105v1h1v-1h-1Zm0-22.983h1v-1h-1v1ZM119.966 51.42h-1v1h1v-1Zm32.148 0v1h1v-1h-1Zm23.688 3.807.077.997h.009l.01-.002-.096-.995Zm-21.855 1.692-.078-.997h-.004l.082.997Zm7.896 30.161c-4.126 0-6.888-.794-8.592-1.987-1.655-1.159-2.393-2.747-2.393-4.627h-2c0 2.491 1.024 4.71 3.246 6.265 2.174 1.522 5.404 2.349 9.739 2.349v-2Zm-10.985-6.614v-.282h-2v.282h2Zm0-.282c0-1.114.198-1.966.608-2.669.41-.702 1.084-1.346 2.188-1.954 2.262-1.246 6.082-2.214 12.305-3.274l-.336-1.972c-6.185 1.055-10.333 2.061-12.934 3.494-1.329.732-2.312 1.603-2.95 2.699-.639 1.094-.881 2.323-.881 3.676h2Zm15.097-7.897c6.773-1.129 13.156-2.404 15.882-3.12l-.509-1.935c-2.632.692-8.939 1.956-15.702 3.083l.329 1.972Zm14.628-4.088v4.935h2v-4.935h-2Zm0 4.935c0 5.463-4.861 13.946-18.74 13.946v2c14.884 0 20.74-9.282 20.74-15.946h-2Zm.9 21.898c1.608 4.679 5.53 10.968 14.2 10.968v-2c-7.404 0-10.815-5.273-12.309-9.618l-1.891.65Zm14.2 10.968h25.944v-2h-25.944v2Zm26.944-1V82.017h-2V105h2Zm-1-23.983h-3.666v2h3.666v-2Zm-3.666 0c-2.113 0-2.974-.42-3.398-.948-.477-.594-.678-1.624-.678-3.551h-2c0 1.88.151 3.6 1.119 4.804 1.021 1.27 2.699 1.695 4.957 1.695v-2Zm-4.076-4.499V51.42h-2v25.098h2Zm0-25.098c0-5.72-.782-12.79-7.013-18.37-6.182-5.536-17.524-9.42-38.12-9.42v2c20.434 0 31.159 3.871 36.786 8.91 5.577 4.995 6.347 11.32 6.347 16.88h2Zm-45.133-27.79h-4.512v2h4.512v-2Zm-4.512 0c-20.35 0-31.715 4.392-37.989 10.15-6.301 5.785-7.285 12.778-7.285 17.499h2c0-4.444.919-10.776 6.638-16.025 5.746-5.274 16.518-9.624 36.636-9.624v-2Zm-45.274 27.649v.141h2v-.141h-2Zm1 1.141h32.148v-2h-32.148v2Zm33.148-1c0-1.17.267-2.805 1.915-4.186 1.696-1.42 5.011-2.71 11.467-2.71v-2c-6.658 0-10.533 1.319-12.751 3.177-2.264 1.897-2.631 4.21-2.631 5.719h2Zm13.382-6.896h.423v-2h-.423v2Zm.423 0c6.525 0 9.942.852 11.713 1.977.854.542 1.319 1.144 1.585 1.761.274.636.366 1.355.366 2.171h2c0-.947-.103-1.973-.529-2.962-.435-1.009-1.177-1.914-2.35-2.659-2.282-1.448-6.197-2.288-12.785-2.288v2Zm13.664 5.909v.141h2v-.141h-2Zm0 .141c0 1.237-.302 1.96-.896 2.46-.66.557-1.85.991-3.982 1.198l.193 1.99c2.239-.216 3.94-.699 5.078-1.658 1.203-1.015 1.607-2.407 1.607-3.99h-2Zm-4.859 3.656-21.855 1.692.155 1.994 21.855-1.692-.155-1.994Zm-21.859 1.692c-13.784 1.131-23.002 3.578-28.784 7.671-5.883 4.165-8.089 9.942-8.089 17.296h2c0-6.887 2.024-11.967 7.244-15.663 5.322-3.768 14.081-6.185 27.792-7.31l-.163-1.994ZM116.992 80.89v.564h2v-.564h-2Zm0 .564c0 7.226 2.562 13.792 8.01 18.538 5.433 4.734 13.626 7.56 24.715 7.56v-2c-10.766 0-18.437-2.743-23.402-7.068-4.951-4.314-7.323-10.297-7.323-17.03h-2Zm32.725 26.098h2.397v-2h-2.397v2Zm2.397 0c19.258 0 27.831-8.508 31.065-12.183l-1.501-1.322c-2.97 3.375-11.035 11.505-29.564 11.505v2ZM257.269 105h-1v1h1v-1Zm32.007 0v1h1v-1h-1Zm0-56.4v-1h-1v1h1Zm29.892 0v1h1v-1h-1Zm0-22.137h1v-1h-1v1Zm-91.791 0v-1h-1v1h1Zm0 22.137h-1v1h1v-1Zm29.892 0h1v-1h-1v1Zm0 57.4h32.007v-2h-32.007v2Zm33.007-1V48.6h-2V105h2Zm-1-55.4h29.892v-2h-29.892v2Zm30.892-1V26.463h-2V48.6h2Zm-1-23.137h-91.791v2h91.791v-2Zm-92.791 1V48.6h2V26.463h-2Zm1 23.137h29.892v-2h-29.892v2Zm28.892-1V105h2V48.6h-2Zm120.746 22.701-.164-.986h-.004l.168.986Zm15.792-3.102h1v-1.297l-1.254.33.254.967Zm.846 26.508.946-.325-.56-1.628-1.136 1.292.75.661ZM432.851 105v1h1v-1h-1Zm0-22.983h1v-1h-1v1ZM331.19 51.42h-1v1h1v-1Zm32.148 0v1h1v-1h-1Zm23.688 3.807.077.997h.01l.01-.002-.097-.995Zm-21.855 1.692-.077-.997h-.005l.082.997Zm7.896 30.161c-4.125 0-6.887-.794-8.591-1.987-1.655-1.159-2.394-2.747-2.394-4.627h-2c0 2.491 1.024 4.71 3.247 6.265 2.173 1.522 5.404 2.349 9.738 2.349v-2Zm-10.985-6.614v-.282h-2v.282h2Zm0-.282c0-1.114.199-1.966.609-2.669.41-.702 1.083-1.346 2.187-1.954 2.263-1.246 6.082-2.214 12.305-3.274l-.336-1.972c-6.185 1.055-10.332 2.061-12.934 3.494-1.328.732-2.311 1.603-2.95 2.699-.639 1.094-.881 2.323-.881 3.676h2Zm15.098-7.897c6.773-1.129 13.156-2.404 15.882-3.12l-.509-1.935c-2.632.692-8.939 1.956-15.702 3.083l.329 1.972Zm14.627-4.088v4.935h2v-4.935h-2Zm0 4.935c0 5.463-4.861 13.946-18.74 13.946v2c14.885 0 20.74-9.282 20.74-15.946h-2Zm.901 21.898c1.608 4.679 5.529 10.968 14.199 10.968v-2c-7.404 0-10.814-5.273-12.308-9.618l-1.891.65ZM406.907 106h25.944v-2h-25.944v2Zm26.944-1V82.017h-2V105h2Zm-1-23.983h-3.666v2h3.666v-2Zm-3.666 0c-2.113 0-2.973-.42-3.398-.948-.477-.594-.678-1.624-.678-3.551h-2c0 1.88.152 3.6 1.12 4.804 1.02 1.27 2.698 1.695 4.956 1.695v-2Zm-4.076-4.499V51.42h-2v25.098h2Zm0-25.098c0-5.72-.781-12.79-7.013-18.37-6.181-5.536-17.524-9.42-38.12-9.42v2c20.435 0 31.159 3.871 36.786 8.91 5.578 4.995 6.347 11.32 6.347 16.88h2Zm-45.133-27.79h-4.512v2h4.512v-2Zm-4.512 0c-20.349 0-31.714 4.392-37.988 10.15-6.302 5.785-7.286 12.778-7.286 17.499h2c0-4.444.92-10.776 6.638-16.025 5.746-5.274 16.519-9.624 36.636-9.624v-2ZM330.19 51.279v.141h2v-.141h-2Zm1 1.141h32.148v-2H331.19v2Zm33.148-1c0-1.17.268-2.805 1.916-4.186 1.695-1.42 5.011-2.71 11.466-2.71v-2c-6.657 0-10.533 1.319-12.75 3.177-2.265 1.897-2.632 4.21-2.632 5.719h2Zm13.382-6.896h.423v-2h-.423v2Zm.423 0c6.525 0 9.942.852 11.714 1.977.854.542 1.319 1.144 1.585 1.761.274.636.365 1.355.365 2.171h2c0-.947-.102-1.973-.529-2.962-.434-1.009-1.177-1.914-2.349-2.659-2.283-1.448-6.198-2.288-12.786-2.288v2Zm13.664 5.909v.141h2v-.141h-2Zm0 .141c0 1.237-.301 1.96-.896 2.46-.659.557-1.85.991-3.981 1.198l.193 1.99c2.239-.216 3.939-.699 5.077-1.658 1.204-1.015 1.607-2.407 1.607-3.99h-2Zm-4.858 3.656-21.855 1.692.154 1.994 21.855-1.692-.154-1.994Zm-21.86 1.692c-13.784 1.131-23.002 3.578-28.784 7.671-5.883 4.165-8.089 9.942-8.089 17.296h2c0-6.887 2.024-11.967 7.245-15.663 5.322-3.768 14.081-6.185 27.792-7.31l-.164-1.994ZM328.216 80.89v.564h2v-.564h-2Zm0 .564c0 7.226 2.563 13.792 8.01 18.538 5.434 4.734 13.626 7.56 24.715 7.56v-2c-10.766 0-18.436-2.743-23.401-7.068-4.951-4.314-7.324-10.297-7.324-17.03h-2Zm32.725 26.098h2.397v-2h-2.397v2Zm2.397 0c19.259 0 27.832-8.508 31.066-12.183l-1.501-1.322c-2.971 3.375-11.036 11.505-29.565 11.505v2ZM513 105h-1v1h1v-1Zm32.007 0v1h1v-1h-1Zm0-78.537h1v-1h-1v1Zm-89.253 0v-1h-1v1h1Zm-1.692 48.222-.972-.237-.001.007-.002.007.975.223Zm-11.703 8.46v-1h-1v1h1Zm0 21.855h-1v1h1v-1Zm40.044-17.484.936.351.001-.002-.937-.349Zm3.384-38.916v-1h-1v1h1Zm27.213 0h1v-1h-1v1Zm0 57.4h32.007v-2H513v2Zm33.007-1V26.463h-2V105h2Zm-1-79.537h-89.253v2h89.253v-2Zm-90.253 1c0 34.905-.149 41.79-1.664 47.985l1.943.475c1.588-6.496 1.721-13.711 1.721-48.46h-2Zm-1.667 47.999c-.744 3.248-1.924 5.113-3.362 6.191-1.444 1.083-3.306 1.492-5.674 1.492v2c2.567 0 4.935-.437 6.874-1.892 1.947-1.46 3.305-3.825 4.112-7.345l-1.95-.446Zm-9.036 7.683h-1.692v2h1.692v-2Zm-2.692 1V105h2V83.145h-2Zm1 22.855h11.139v-2h-11.139v2Zm11.139 0c10.861 0 17.598-2.431 22.008-6.004 4.4-3.564 6.344-8.16 7.833-12.129l-1.873-.702c-1.472 3.926-3.264 8.073-7.219 11.277-3.943 3.195-10.179 5.558-20.749 5.558v2Zm29.842-18.135c1.388-3.725 2.243-8.663 2.756-15.074.515-6.421.691-14.385.691-24.191h-2c0 9.793-.177 17.692-.684 24.031-.509 6.35-1.346 11.07-2.637 14.536l1.874.698Zm2.447-38.265H513v-2h-27.213v2Zm26.213-1V105h2V48.6h-2Zm106.587 59.515c23.516 0 36.676-6.541 43.925-15.07 7.226-8.499 8.399-18.765 8.399-25.833h-2c0 6.891-1.154 16.576-7.922 24.538-6.745 7.934-19.248 14.365-42.402 14.365v2Zm52.324-40.903v-2.256h-2v2.256h2Zm0-2.256c0-6.922-1.101-17.358-8.265-26.068-7.193-8.745-20.321-15.54-43.918-15.54v2c23.214 0 35.678 6.67 42.373 14.81 6.725 8.175 7.81 18.043 7.81 24.798h2Zm-52.183-41.608h-4.794v2h4.794v-2Zm-4.794 0c-22.835 0-35.983 6.802-43.398 15.546-7.387 8.712-8.926 19.172-8.926 26.203h2c0-6.787 1.492-16.702 8.452-24.91 6.932-8.175 19.446-14.839 41.872-14.839v-2ZM561.61 65.097v1.974h2v-1.974h-2Zm0 1.974c0 7.244 1.575 17.535 9.007 26.021 7.455 8.512 20.637 15.023 43.458 15.023v-2c-22.44 0-34.991-6.39-41.953-14.34-6.985-7.976-8.512-17.707-8.512-24.704h-2Zm52.465 41.044h4.512v-2h-4.512v2Zm1.551-24.137c-7.913 0-12.527-2.78-15.201-6.381-2.713-3.656-3.539-8.312-3.539-12.218h-2c0 4.131.865 9.275 3.933 13.41 3.108 4.187 8.364 7.189 16.807 7.189v-2Zm-18.74-18.599c0-4.05.828-8.59 3.529-12.098 2.663-3.458 7.275-6.078 15.211-6.078v-2c-8.42 0-13.678 2.809-16.796 6.858-3.08 4.001-3.944 9.05-3.944 13.318h2Zm18.74-18.176h1.269v-2h-1.269v2Zm1.269 0c7.642 0 12.266 2.613 15.007 6.088 2.774 3.518 3.733 8.063 3.733 12.088h2c0-4.294-1.016-9.337-4.163-13.327-3.181-4.033-8.428-6.849-16.577-6.849v2Zm18.74 18.176c0 3.808-.956 8.471-3.746 12.157-2.753 3.638-7.379 6.442-14.994 6.442v2c8.177 0 13.421-3.048 16.589-7.235 3.133-4.14 4.151-9.276 4.151-13.364h-2Zm-18.74 18.599h-1.269v2h1.269v-2Zm70.7 21.022h-1v1h1v-1Zm32.007 0v1h1v-1h-1Zm0-56.4v-1h-1v1h1Zm40.749 0v1h1v-1h-1Zm0-22.137h1v-1h-1v1Zm-72.756 0v-1h-1v1h1Zm0 79.537h32.007v-2h-32.007v2Zm33.007-1V48.6h-2V105h2Zm-1-55.4h40.749v-2h-40.749v2Zm41.749-1V26.463h-2V48.6h2Zm-1-23.137h-72.756v2h72.756v-2Zm-73.756 1V105h2V26.463h-2Z" fill="url(#a)"/><defs><linearGradient id="a" x1="-8.789" y1="65.329" x2="759.195" y2="73.335" gradientUnits="userSpaceOnUse"><stop stop-color="#202020"/><stop offset=".931" stop-color="#202020" stop-opacity=".979"/><stop offset=".989" stop-color="#202020" stop-opacity=".541"/><stop offset=".993" stop-color="#202020" stop-opacity=".084"/><stop offset="1" stop-color="#202020" stop-opacity="0"/></linearGradient></defs></symbol><symbol fill="none" id="icon-mainCatalog_asideText" viewBox="0 0 102 937"><title>mainCatalog_asideText</title><path opacity=".13" d="m99 838.824.698.716.302-.294v-.422h-1Zm0-52.632h1v-2.381l-1.7 1.667.7.714Zm-69.832 68.456-.745.668.698.778.747-.732-.7-.714Zm-58.136-64.844.745-.668-1.745-1.945v2.613h1Zm0 49.88h-1v.386l.26.286.74-.672Zm51.084 56.244v1h2.26l-1.52-1.672-.74.672Zm-51.084 0v-1h-1v1h1Zm0 40.936h-1v1h1v-1Zm127.968 0v1h1v-1h-1Zm0-40.936h1v-1h-1v1Zm-58.652 0-.698-.716-1.763 1.716h2.461v-1ZM100 838.824v-52.632h-2v52.632h2Zm-1.7-53.346-69.832 68.456 1.4 1.428L99.7 786.906l-1.4-1.428ZM29.913 853.98l-58.136-64.844-1.49 1.336 58.136 64.844 1.49-1.336Zm-59.881-64.176v49.88h2v-49.88h-2Zm.26 50.552L21.376 896.6l1.48-1.344-51.084-56.244-1.48 1.344Zm51.824 54.572h-51.084v2h51.084v-2Zm-52.084 1v40.936h2v-40.936h-2Zm1 41.936H99v-2H-28.968v2Zm128.968-1v-40.936h-2v40.936h2Zm-1-41.936H40.348v2H99v-2Zm-57.954 1.716 58.652-57.104-1.396-1.433-58.652 57.105 1.396 1.432Zm16.846-171.282-.986.164v.004l.986-.168Zm-3.784-19.264v-1h-1.297l.33 1.254.967-.254Zm32.336-1.032-.325-.946-1.628.56 1.292 1.136.661-.75ZM99 657.25h1v-1h-1v1Zm-28.036 0v-1h-1v1h1ZM33.64 781.262v1h1v-1h-1Zm0-39.216h1v-1h-1v1Zm4.644-28.896.997-.077v-.01l-.002-.01-.995.097Zm2.064 26.66-.997.077v.005l.997-.082Zm37.012-9.632c0 5.055-.973 8.476-2.464 10.606-1.457 2.082-3.464 3.014-5.824 3.014v2c2.972 0 5.609-1.218 7.463-3.867 1.82-2.6 2.825-6.488 2.825-11.753h-2Zm-8.288 13.62h-.344v2h.344v-2Zm-.344 0c-1.385 0-2.466-.247-3.366-.772-.9-.525-1.71-1.381-2.466-2.753-1.54-2.797-2.725-7.492-4.018-15.079l-1.972.336c1.287 7.549 2.51 12.572 4.238 15.708.879 1.596 1.917 2.761 3.21 3.515s2.75 1.045 4.374 1.045v-2Zm-9.85-18.601c-1.377-8.261-2.93-16.039-3.803-19.354l-1.934.509c.848 3.221 2.39 10.923 3.765 19.174l1.972-.329Zm-4.77-18.099h6.02v-2h-6.02v2Zm6.02 0c6.796 0 17.232 6.039 17.232 23.08h2c0-18.047-11.236-25.08-19.232-25.08v2Zm26.641-1.087c5.67-1.949 13.231-6.676 13.231-17.113h-2c0 9.171-6.544 13.387-11.881 15.222l.65 1.891ZM100 688.898V657.25h-2v31.648h2Zm-1-32.648H70.964v2H99v-2Zm-29.036 1v4.472h2v-4.472h-2Zm0 4.472c0 2.593-.513 3.732-1.24 4.316-.79.636-2.123.876-4.468.876v2c2.299 0 4.32-.19 5.722-1.317 1.467-1.18 1.986-3.137 1.986-5.875h-2Zm-5.708 5.192H33.64v2h30.616v-2Zm-30.616 0c-6.96 0-15.502.952-22.245 8.481C4.697 682.875-.04 696.643-.04 721.75h2c0-24.946 4.723-38.096 10.925-45.021 6.157-6.875 13.956-7.815 20.755-7.815v-2ZM-.04 721.75v5.504h2v-5.504h-2Zm0 5.504c0 24.798 5.353 38.596 12.325 46.191 6.997 7.623 15.454 8.817 21.183 8.817v-2c-5.451 0-13.248-1.129-19.71-8.169C7.271 765.026 1.96 751.82 1.96 727.254h-2Zm33.508 55.008h.172v-2h-.172v2Zm1.172-1v-39.216h-2v39.216h2Zm-1-40.216c-1.464 0-3.534-.337-5.275-2.416-1.78-2.125-3.357-6.231-3.357-14.128h-2c0 8.099 1.606 12.765 3.824 15.412 2.258 2.695 5.004 3.132 6.808 3.132v-2Zm-8.632-16.544v-.516h-2v.516h2Zm0-.516c0-7.967 1.038-12.19 2.446-14.407.683-1.077 1.45-1.674 2.247-2.017.815-.352 1.726-.464 2.735-.464v-2c-1.14 0-2.358.124-3.527.627-1.187.511-2.258 1.387-3.144 2.782-1.731 2.728-2.757 7.449-2.757 15.479h2Zm7.428-16.888h.172v-2h-.172v2Zm.172 0c1.547 0 2.502.379 3.17 1.171.723.857 1.258 2.365 1.51 4.977l1.991-.193c-.263-2.72-.846-4.738-1.972-6.073-1.181-1.401-2.806-1.882-4.699-1.882v2Zm4.679 6.129 2.064 26.66 1.994-.154-2.064-26.66-1.994.154Zm2.064 26.665c1.38 16.806 4.361 28.001 9.318 35.003 5.03 7.104 12 9.775 20.919 9.775v-2c-8.452 0-14.726-2.489-19.286-8.931-4.632-6.542-7.584-17.278-8.957-34.011l-1.994.164Zm30.237 44.778h.688v-2h-.688v2Zm.688 0c8.76 0 16.706-3.105 22.448-9.696 5.73-6.577 9.168-16.513 9.168-30.004h-2c0 13.168-3.355 22.582-8.676 28.69-5.31 6.095-12.672 9.01-20.94 9.01v2Zm31.616-39.7v-2.924h-2v2.924h2Zm0-2.924c0-23.413-10.337-33.815-14.787-37.731l-1.322 1.501c4.15 3.653 14.109 13.547 14.109 36.23h2ZM99 613.771v1h1v-1h-1Zm0-39.044h1v-1h-1v1Zm-68.8 0h-1v1h1v-1Zm0-36.464h1v-1h-1v1Zm-27.004 0v-1h-1v1h1Zm0 111.972h-1v1h1v-1Zm27.004 0v1h1v-1h-1Zm0-36.464v-1h-1v1h1Zm69.8 0v-39.044h-2v39.044h2Zm-1-40.044H30.2v2H99v-2Zm-67.8 1v-36.464h-2v36.464h2Zm-1-37.464H3.196v2H30.2v-2Zm-28.004 1v111.972h2V538.263h-2Zm1 112.972H30.2v-2H3.196v2Zm28.004-1v-36.464h-2v36.464h2Zm-1-35.464H99v-2H30.2v2Zm27.692-147.073-.986.164v.004l.986-.168Zm-3.784-19.264v-1h-1.297l.33 1.254.967-.254Zm32.336-1.032-.325-.946-1.628.56 1.292 1.136.661-.75ZM99 399.586h1v-1h-1v1Zm-28.036 0v-1h-1v1h1ZM33.64 523.598v1h1v-1h-1Zm0-39.216h1v-1h-1v1Zm4.644-28.896.997-.077v-.01l-.002-.01-.995.097Zm2.064 26.66-.997.077v.005l.997-.082Zm37.012-9.632c0 5.055-.973 8.476-2.464 10.606-1.457 2.082-3.464 3.014-5.824 3.014v2c2.972 0 5.609-1.218 7.463-3.867 1.82-2.6 2.825-6.489 2.825-11.753h-2Zm-8.288 13.62h-.344v2h.344v-2Zm-.344 0c-1.385 0-2.466-.247-3.366-.772-.9-.526-1.71-1.381-2.466-2.753-1.54-2.797-2.725-7.492-4.018-15.079l-1.972.336c1.287 7.549 2.51 12.572 4.238 15.708.879 1.596 1.917 2.761 3.21 3.515s2.75 1.045 4.374 1.045v-2Zm-9.85-18.601c-1.377-8.261-2.93-16.039-3.803-19.354l-1.934.509c.848 3.221 2.39 10.923 3.765 19.174l1.972-.329Zm-4.77-18.099h6.02v-2h-6.02v2Zm6.02 0c6.796 0 17.232 6.038 17.232 23.08h2c0-18.047-11.236-25.08-19.232-25.08v2Zm26.641-1.087c5.67-1.949 13.231-6.676 13.231-17.113h-2c0 9.171-6.544 13.387-11.881 15.222l.65 1.891ZM100 431.234v-31.648h-2v31.648h2Zm-1-32.648H70.964v2H99v-2Zm-29.036 1v4.472h2v-4.472h-2Zm0 4.472c0 2.593-.513 3.732-1.24 4.316-.79.636-2.123.876-4.468.876v2c2.299 0 4.32-.19 5.722-1.317 1.467-1.18 1.986-3.137 1.986-5.875h-2Zm-5.708 5.192H33.64v2h30.616v-2Zm-30.616 0c-6.96 0-15.502.952-22.245 8.481C4.697 425.211-.04 438.979-.04 464.086h2c0-24.946 4.723-38.096 10.925-45.021 6.157-6.875 13.956-7.815 20.755-7.815v-2ZM-.04 464.086v5.504h2v-5.504h-2Zm0 5.504c0 24.798 5.353 38.596 12.325 46.191 6.997 7.623 15.454 8.817 21.183 8.817v-2c-5.451 0-13.248-1.129-19.71-8.169C7.271 507.361 1.96 494.156 1.96 469.59h-2Zm33.508 55.008h.172v-2h-.172v2Zm1.172-1v-39.216h-2v39.216h2Zm-1-40.216c-1.464 0-3.534-.338-5.275-2.416-1.78-2.125-3.357-6.231-3.357-14.128h-2c0 8.099 1.606 12.765 3.824 15.412 2.258 2.695 5.004 3.132 6.808 3.132v-2Zm-8.632-16.544v-.516h-2v.516h2Zm0-.516c0-7.967 1.038-12.19 2.446-14.407.683-1.077 1.45-1.674 2.247-2.017.815-.352 1.726-.464 2.735-.464v-2c-1.14 0-2.358.124-3.527.627-1.187.511-2.258 1.387-3.144 2.782-1.731 2.728-2.757 7.449-2.757 15.479h2Zm7.428-16.888h.172v-2h-.172v2Zm.172 0c1.547 0 2.502.379 3.17 1.171.723.857 1.258 2.365 1.51 4.977l1.991-.193c-.263-2.72-.846-4.738-1.972-6.073-1.181-1.401-2.806-1.882-4.699-1.882v2Zm4.679 6.129 2.064 26.66 1.994-.154-2.064-26.66-1.994.154Zm2.064 26.665c1.38 16.806 4.361 28.001 9.318 35.003 5.03 7.104 12 9.775 20.919 9.775v-2c-8.452 0-14.726-2.489-19.286-8.931-4.632-6.542-7.584-17.278-8.957-34.011l-1.994.164Zm30.237 44.778h.688v-2h-.688v2Zm.688 0c8.76 0 16.706-3.105 22.448-9.696 5.73-6.577 9.168-16.513 9.168-30.004h-2c0 13.168-3.355 22.582-8.676 28.69-5.31 6.094-12.672 9.01-20.94 9.01v2Zm31.616-39.7v-2.924h-2v2.924h2Zm0-2.924c0-23.413-10.337-33.815-14.787-37.731l-1.322 1.501c4.15 3.653 14.109 13.546 14.109 36.23h2ZM99 301.816v1h1v-1h-1Zm0-39.044h1v-1h-1v1Zm-95.804 0v-1h-1v1h1Zm0 108.876h-1v1h1v-1Zm58.824 2.064-.238.971.008.002.007.002.223-.975Zm10.32 14.276h-1v1h1v-1Zm26.66 0v1h1v-1h-1ZM77.672 339.14l.351-.937h-.002l-.349.937ZM30.2 335.012h-1v1h1v-1Zm0-33.196v-1h-1v1h1Zm69.8 0v-39.044h-2v39.044h2Zm-1-40.044H3.196v2H99v-2Zm-96.804 1v108.876h2V262.772h-2Zm1 109.876c42.562 0 50.997.18 58.586 2.035l.476-1.943c-7.89-1.928-16.656-2.092-59.062-2.092v2Zm58.6 2.039c3.993.914 6.323 2.373 7.68 4.183 1.362 1.816 1.864 4.143 1.864 7.054h2c0-3.11-.53-5.942-2.264-8.254-1.739-2.319-4.569-3.956-8.833-4.933l-.446 1.95Zm9.544 11.237v2.064h2v-2.064h-2Zm1 3.064H99v-2H72.34v2Zm27.66-1V374.4h-2v13.588h2Zm0-13.588c0-13.218-2.958-21.38-7.275-26.709-4.308-5.318-9.864-7.673-14.702-9.488l-.702 1.873c4.794 1.798 9.902 4.001 13.85 8.874C95.11 353.812 98 361.473 98 374.4h2Zm-21.979-36.197c-4.515-1.683-10.515-2.724-18.33-3.349-7.823-.627-17.53-.842-29.491-.842v2c11.948 0 21.59.215 29.332.835 7.752.621 13.534 1.644 17.79 3.23l.7-1.874ZM31.2 335.012v-33.196h-2v33.196h2Zm-1-32.196H99v-2H30.2v2Zm72.38-129.801c0-28.647-7.967-44.628-18.305-53.416-10.309-8.764-22.769-10.192-31.371-10.192v2c8.425 0 20.304 1.409 30.076 9.716 9.743 8.283 17.6 23.607 17.6 51.892h2Zm-49.676-63.608h-2.752v2h2.752v-2Zm-2.752 0c-8.425 0-21.094 1.34-31.66 10.031-10.601 8.72-18.876 24.661-18.876 53.405h2c0-28.361 8.151-43.638 18.147-51.86 10.03-8.251 22.13-9.576 30.389-9.576v-2ZM-.384 172.843v5.848h2v-5.848h-2Zm0 5.848c0 27.81 8.282 43.779 18.886 52.771 10.573 8.964 23.272 10.837 31.822 10.837v-2c-8.306 0-20.46-1.826-30.528-10.363-10.036-8.509-18.18-23.844-18.18-51.245h-2Zm50.708 63.608h2.408v-2h-2.408v2Zm2.408 0c8.81 0 21.301-1.916 31.597-10.934 10.322-9.039 18.251-25.05 18.251-52.846h-2c0 27.415-7.809 42.794-17.568 51.342-9.785 8.57-21.717 10.438-30.28 10.438v2Zm49.848-63.78v-5.504h-2v5.504h2Zm-29.004-1.892c0 9.71-3.415 15.41-7.873 18.719-4.513 3.348-10.246 4.361-15.035 4.361v2c5.015 0 11.236-1.052 16.226-4.755 5.045-3.744 8.682-10.084 8.682-20.325h-2Zm-22.908 23.08c-4.965 0-10.559-1.015-14.891-4.351-4.285-3.298-7.501-8.995-7.501-18.729h-2c0 10.218 3.405 16.561 8.28 20.314 4.827 3.716 10.93 4.766 16.112 4.766v-2Zm-22.392-23.08v-1.548h-2v1.548h2Zm0-1.548c0-9.379 3.21-15.087 7.51-18.479 4.343-3.426 9.942-4.601 14.882-4.601v-2c-5.208 0-11.305 1.232-16.12 5.031-4.86 3.832-8.272 10.163-8.272 20.049h2Zm22.392-23.08c4.676 0 10.416 1.173 14.963 4.613 4.498 3.404 7.945 9.116 7.945 18.467h2c0-9.913-3.691-16.242-8.739-20.062-5-3.783-11.213-5.018-16.169-5.018v2Zm22.908 23.08v1.548h2v-1.548h-2ZM99 88.834v1h1v-1h-1Zm0-39.044h1v-1h-1v1Zm-68.8 0h-1v1h1v-1Zm0-49.708h1v-1h-1v1Zm-27.004 0v-1h-1v1h1Zm0 88.752h-1v1h1v-1Zm96.804 0V49.79h-2v39.044h2ZM99 48.79H30.2v2H99v-2Zm-67.8 1V.082h-2V49.79h2Zm-1-50.708H3.196v2H30.2v-2Zm-28.004 1v88.752h2V.082h-2Zm1 89.752H99v-2H3.196v2Z" fill="url(#a)"/><defs><linearGradient id="a" x1="50.409" y1="938.272" x2="60.248" y2="-2.116" gradientUnits="userSpaceOnUse"><stop stop-color="#202020"/><stop offset=".931" stop-color="#202020" stop-opacity=".979"/><stop offset=".989" stop-color="#202020" stop-opacity=".541"/><stop offset=".993" stop-color="#202020" stop-opacity=".084"/><stop offset="1" stop-color="#202020" stop-opacity="0"/></linearGradient></defs></symbol><symbol fill="none" id="icon-menu_arrowDown" viewBox="0 0 18 18"><title>menu_arrowDown</title><path d="m3 6.75 6 6 6-6" stroke="#202020" stroke-width="1.5" stroke-linecap="round" stroke-linejoin="round"/></symbol><symbol fill="none" id="icon-myPhoto-done" viewBox="0 0 48 48"><title>myPhoto-done</title><path d="M18 32.4 9.6 24l-2.8 2.8L18 38l24-24-2.8-2.8L18 32.4Z" fill="#fff"/></symbol><symbol fill="none" id="icon-myPhoto-waiting" viewBox="0 0 48 48"><title>myPhoto-waiting</title><path d="M23.98 4C12.94 4 4 12.96 4 24s8.94 20 19.98 20C35.04 44 44 35.04 44 24S35.04 4 23.98 4ZM24 40c-8.84 0-16-7.16-16-16S15.16 8 24 8s16 7.16 16 16-7.16 16-16 16Z" fill="#fff"/><path d="M25 14h-3v12l10.5 6.3 1.5-2.46-9-5.34V14Z" fill="#fff"/></symbol><symbol id="icon-personal-account-icon" viewBox="0 0 25 27"><title>personal-account-icon</title><path d="M23.667 21.608a12.052 12.052 0 0 0-2.598-3.85 12.106 12.106 0 0 0-3.85-2.598c-.014-.007-.027-.01-.04-.016A7.99 7.99 0 0 0 12.5.674a7.99 7.99 0 0 0-7.99 7.992 7.986 7.986 0 0 0 3.313 6.48c-.013.007-.026.01-.039.017a12 12 0 0 0-3.851 2.597 12.104 12.104 0 0 0-2.597 3.851 11.979 11.979 0 0 0-.951 4.45.258.258 0 0 0 .258.265h1.933a.257.257 0 0 0 .258-.251 9.608 9.608 0 0 1 2.83-6.584 9.604 9.604 0 0 1 6.838-2.833 9.604 9.604 0 0 1 6.839 2.833 9.608 9.608 0 0 1 2.83 6.584.255.255 0 0 0 .257.251h1.934a.259.259 0 0 0 .257-.264 12.01 12.01 0 0 0-.95-4.454ZM12.5 14.21a5.507 5.507 0 0 1-3.919-1.624 5.507 5.507 0 0 1-1.624-3.919c0-1.48.577-2.871 1.624-3.919a5.507 5.507 0 0 1 3.92-1.624 5.51 5.51 0 0 1 3.918 1.624 5.507 5.507 0 0 1 1.624 3.919c0 1.48-.577 2.871-1.624 3.919A5.507 5.507 0 0 1 12.5 14.21Z"/></symbol><symbol id="icon-personal-add-photo-icon" viewBox="0 0 25 25"><title>personal-add-photo-icon</title><path d="m12.5 15.625 4.688-4.688 6.25 6.25v6.25H1.563V18.75m14.062 0-6.25-6.25-7.813 7.813V1.563h21.875V18.75h-7.812Z" stroke-width="2" stroke-linecap="round" stroke-linejoin="round"/><path d="M7.813 9.375a2.344 2.344 0 1 0 0-4.687 2.344 2.344 0 0 0 0 4.687Z" stroke-width="2" stroke-linecap="round" stroke-linejoin="round"/></symbol><symbol id="icon-personal-exit-icon" viewBox="0 0 26 26"><title>personal-exit-icon</title><path d="M23.969.813H2.03A1.22 1.22 0 0 0 .812 2.03v8.125h1.625V2.437h21.125v21.125H2.438v-8.125H.813v8.532a1.22 1.22 0 0 0 1.218 1.218H23.97a1.22 1.22 0 0 0 1.218-1.218V2.03A1.22 1.22 0 0 0 23.97.812Z"/><path d="m10.632 18.45 1.15 1.148 6.836-6.836-6.836-6.836-1.15 1.149 4.875 4.875H.813v1.625h14.694l-4.875 4.874Z"/></symbol><symbol id="icon-personal-icon" viewBox="0 0 29 23"><title>personal-icon</title><path d="M27.906.156H1.094C.524.156.062.617.062 1.188v20.625c0 .57.461 1.03 1.032 1.03h26.812c.57 0 1.032-.46 1.032-1.03V1.188c0-.57-.461-1.032-1.032-1.032Zm-1.289 3.571v16.796H2.383V3.727l-.89-.693L2.76 1.407 4.14 2.48h20.724l1.38-1.073 1.266 1.627-.893.693Zm-1.753-1.25L14.5 10.533 4.136 2.477l-1.38-1.074L1.49 3.031l.89.693 11.008 8.56a1.804 1.804 0 0 0 2.214 0l11.015-8.557.89-.693-1.267-1.627-1.376 1.07Z"/></symbol><symbol id="icon-play_video" viewBox="0 0 37 38"><title>play_video</title><path d="M8.077 33.153a1.154 1.154 0 0 1-1.154-1.154V6.615a1.154 1.154 0 0 1 1.71-1.011L31.71 18.296a1.154 1.154 0 0 1 0 2.022L8.633 33.01a1.15 1.15 0 0 1-.556.143Z"/></symbol><symbol id="icon-popup-close" viewBox="0 0 35 35"><title>popup-close</title><path d="M29.165 29.167 5.832 5.834m23.333 0L5.832 29.167" stroke-width="2.844" stroke-linecap="round"/></symbol><symbol fill="none" id="icon-scrollBar_arrow" viewBox="0 0 10 18"><title>scrollBar_arrow</title><path d="M8.668 1.89 1.557 9l7.11 7.111" stroke-width="2" stroke-linecap="round" stroke-linejoin="round"/></symbol><symbol fill="none" id="icon-search_icon" viewBox="0 0 20 20"><title>search_icon</title><path d="m18.125 17.241-4.72-4.72a6.887 6.887 0 1 0-.884.884l4.72 4.72.884-.884ZM2.5 8.125a5.625 5.625 0 1 1 5.625 5.625A5.631 5.631 0 0 1 2.5 8.125Z" fill="#000"/></symbol><symbol fill="none" id="icon-shwabeLogo" viewBox="0 0 275 55"><title>shwabeLogo</title><path d="M188.6 35.7c-1.014 0-2.029.144-3.044.29-1.16.145-2.174.29-3.044.435-2.03.435-3.479 1.016-4.349 2.032-.87 1.015-1.16 2.031-1.16 3.047 0 1.16.435 2.177 1.305 2.757.87.726 2.174 1.016 3.914 1.016 1.16 0 2.464-.29 3.479-.726a8.362 8.362 0 0 0 2.899-1.886v-6.966Zm8.553-12.336c.725 1.741 1.015 3.773 1.015 6.095v22.639h-8.843l-.435-2.612a10.649 10.649 0 0 1-3.914 2.467c-1.594.58-3.334.87-5.218.87-1.595 0-3.045-.29-4.639-.725a16.985 16.985 0 0 1-3.914-2.177c-1.16-1.016-2.03-2.177-2.755-3.483-.725-1.451-1.015-2.902-1.015-4.789 0-1.741.435-3.338 1.16-4.644a10.74 10.74 0 0 1 2.899-3.338c1.16-.87 2.61-1.74 4.204-2.321a25.96 25.96 0 0 1 5.074-1.306c1.16-.29 2.61-.436 4.059-.58 1.45-.146 2.61-.291 3.624-.291v-1.161c0-1.451-.434-2.612-1.449-3.483-1.015-.87-2.175-1.306-3.479-1.306-.87 0-1.885.29-3.19.726-1.304.435-2.464 1.306-3.624 2.467l-6.523-4.5c.87-1.16 2.029-2.176 3.189-2.901 1.16-.726 2.464-1.452 3.624-1.887 1.305-.435 2.465-.726 3.624-.87 1.16-.146 2.32-.29 3.335-.29 2.029 0 3.914.29 5.653.725 1.74.58 3.189 1.306 4.349 2.467 1.595 1.016 2.61 2.467 3.189 4.208Zm-82.195 20.027h-13.337V3.338h-9.568v40.198H78.716V3.338H68.86v48.76h55.956V3.338h-9.857V43.39Zm40.59-2.032c0-2.322-1.449-3.628-4.204-3.628h-9.712v7.256h9.712c1.45 0 2.465-.29 3.189-1.016.725-.58 1.015-1.451 1.015-2.612Zm-13.916-10.594h8.552c1.595 0 2.61-.435 3.19-1.306.58-.87.87-1.596.87-2.467 0-.87-.29-1.596-.87-2.177-.58-.58-1.595-1.016-3.19-1.016h-8.552v6.966Zm22.324 5.66c1.015 1.306 1.45 2.902 1.45 4.934 0 1.886-.29 3.483-1.015 4.789-.725 1.306-1.594 2.467-2.754 3.337-1.16.871-2.61 1.597-4.204 2.032-1.595.435-3.334.726-5.074.726h-19.86v-35.41h19.28c3.769 0 6.669.872 8.843 2.468 2.175 1.596 3.189 3.918 3.189 6.82 0 3.338-1.304 5.805-3.914 7.256 1.74.871 3.189 1.887 4.059 3.048Zm63.205 5.95c-1.449 1.741-3.479 2.612-6.233 2.612-2.755 0-4.929-.87-6.234-2.612-1.304-1.742-2.029-4.064-2.029-6.676s.725-4.789 2.029-6.675c1.45-1.742 3.479-2.612 6.234-2.612 2.754 0 4.929.87 6.233 2.612 1.45 1.741 2.175 3.918 2.175 6.675-.145 2.612-.87 4.79-2.175 6.676Zm7.249-19.01c-1.305-1.452-3.045-2.613-5.074-3.484-2.03-.87-4.204-1.306-6.814-1.306-1.014 0-2.029.145-3.044.29-1.015.146-2.029.436-2.899.871-.87.436-1.595.726-2.32 1.306-.724.436-1.159 1.016-1.594 1.596.58-3.047 1.594-5.369 3.044-6.82 1.45-1.451 3.334-2.322 5.654-2.612l3.769-.436a17.188 17.188 0 0 0 4.494-1.015c1.304-.436 2.319-1.016 3.044-1.887.87-.87 1.45-1.741 1.74-2.902.434-1.161.724-2.467.869-4.064l-7.683-1.306c-.29 1.451-.725 2.467-1.304 2.903-.58.435-1.595.725-2.755.87l-2.899.29c-3.479.29-6.234 1.162-8.553 2.903-2.32 1.596-4.204 3.773-5.509 6.24-1.449 2.467-2.319 5.224-2.899 8.127-.58 2.902-.87 5.95-.87 8.852 0 3.047.29 5.95 1.015 8.562.725 2.612 1.739 4.789 3.189 6.675 1.45 1.887 3.334 3.338 5.509 4.354 2.174 1.016 4.929 1.596 7.973 1.596 2.899 0 5.364-.435 7.683-1.45 2.175-1.017 4.059-2.323 5.654-3.92 1.449-1.595 2.609-3.482 3.479-5.659.725-2.176 1.16-4.353 1.16-6.675s-.29-4.644-1.015-6.676c-.725-2.031-1.74-3.773-3.044-5.224Zm16.816 6.82h14.061c-.145-2.322-1.014-4.064-2.319-5.225-1.45-1.16-2.899-1.741-4.349-1.741-.87 0-1.595.145-2.465.435-.869.29-1.594.726-2.174 1.451a6.425 6.425 0 0 0-1.74 2.177c-.579.871-.869 1.887-1.014 2.903Zm16.671 10.013L275 44.55c-2.03 3.048-4.349 5.225-6.958 6.53-2.61 1.307-5.799 1.887-9.278 1.887-2.32 0-4.494-.435-6.669-1.16-2.029-.726-3.914-1.887-5.508-3.338-1.595-1.597-2.9-3.483-3.769-5.805a23.212 23.212 0 0 1-1.45-8.127c0-2.902.435-5.66 1.305-7.836.869-2.322 2.174-4.209 3.624-5.805 1.594-1.596 3.334-2.757 5.508-3.628 2.03-.87 4.349-1.306 6.669-1.306 4.929 0 8.843 1.742 11.887 5.224 3.044 3.483 4.494 8.707 4.639 15.673h-24.064c.29 3.048 1.159 5.08 2.754 6.385 1.595 1.306 3.334 2.032 5.364 2.032 1.739 0 3.189-.29 4.639-.87 1.304-.726 2.754-2.177 4.204-4.21ZM50.158 24.815c-2.9.871-5.944 1.451-8.988 1.451-2.32 0-6.088-.29-11.307-.87-5.074-.58-8.698-.726-10.872-.726a37.51 37.51 0 0 0-9.858 1.306c-1.305.436-2.755.871-4.494 1.742V25.83c0-.29 0-.58.145-.87.145-1.307.435-3.338 1.015-6.096.145-.29.145-.58.29-.87.29-1.016.724-2.032 1.16-2.903a17.792 17.792 0 0 1 3.044-5.369c1.884-2.467 4.204-4.354 7.103-5.805 2.9-1.451 6.233-2.177 10.002-2.177 3.915 0 7.249.726 10.003 2.177 2.9 1.451 5.219 3.483 7.103 5.805 1.885 2.467 3.335 5.224 4.35 8.272.724 2.177 1.014 4.498 1.304 6.82Zm0 4.354c0 .726-.145 1.451-.145 2.177-.435 2.902-1.45 6.385-1.45 6.385-.29 1.016-.724 2.032-1.304 2.902-.725 1.451-1.595 2.903-2.755 4.209-1.884 2.467-4.348 4.353-7.103 5.95-2.9 1.45-6.233 2.322-10.003 2.322-3.769 0-7.103-.726-10.002-2.177-2.9-1.597-5.219-3.483-7.103-5.95-1.885-2.467-3.335-5.224-4.204-8.272-.58-2.177-1.015-4.208-1.305-6.385.435-.145.725-.29 1.015-.29.87-.29 1.594-.436 1.884-.58 1.74-.436 3.914-.727 6.524-.727 2.609 0 5.363.146 8.118.436 6.233.726 10.582 1.016 12.902 1.016 2.61 0 4.639-.145 6.233-.29 1.595-.29 3.334-.581 4.929-1.162 1.305-.435 2.61-.87 3.77-1.45v1.886ZM27.398 0A27.187 27.187 0 0 0 2.464 16.253 26.91 26.91 0 0 0 0 27.573C0 42.665 12.322 55 27.398 55c10.293 0 19.281-5.66 24.065-14.222 1.74-3.192 2.9-6.675 3.19-10.448.144-1.016.144-1.887.144-2.903C54.797 12.335 42.62 0 27.399 0Z" fill="#fff"/></symbol><symbol fill="none" id="icon-uploadFile" viewBox="0 0 64 65"><title>uploadFile</title><path d="M30.597 9.206h2.807c.25 0 .374.172.374.515v45.294c0 .343-.124.515-.374.515h-2.807c-.25 0-.374-.172-.374-.515V9.721c0-.343.124-.515.374-.515Z" fill="#000"/><path d="M11.162 30.587h41.675c.33 0 .496.125.496.375v2.813c0 .25-.166.375-.496.375H11.162c-.33 0-.496-.125-.496-.375v-2.813c0-.25.165-.375.496-.375Z" fill="#000"/></symbol><symbol id="icon-view-selector-big-tab" viewBox="0 0 28 12"><title>view-selector-big-tab</title><ellipse cx="5.885" cy="5.911" rx="5.885" ry="5.911"/><ellipse cx="21.993" cy="5.911" rx="5.885" ry="5.911"/></symbol><symbol id="icon-view-selector-big" viewBox="0 0 28 12"><title>view-selector-big</title><ellipse cx="5.885" cy="5.911" rx="5.885" ry="5.911"/><ellipse cx="21.993" cy="5.911" rx="5.885" ry="5.911"/></symbol><symbol id="icon-view-selector-middle-tab" viewBox="0 0 18 18"><title>view-selector-middle-tab</title><circle cx="3.889" cy="3.63" r="3.63"/><circle cx="14.054" cy="3.63" r="3.63"/><circle cx="3.889" cy="13.793" r="3.63"/><circle cx="14.054" cy="13.793" r="3.63"/></symbol><symbol id="icon-view-selector-middle" viewBox="0 0 28 28"><title>view-selector-middle</title><circle cx="3.63" cy="3.63" r="3.63"/><circle cx="13.794" cy="3.63" r="3.63"/><circle cx="23.956" cy="3.63" r="3.63"/><circle cx="3.63" cy="13.793" r="3.63"/><circle cx="13.794" cy="13.793" r="3.63"/><circle cx="23.956" cy="13.793" r="3.63"/><circle cx="3.63" cy="23.956" r="3.63"/><circle cx="13.794" cy="23.956" r="3.63"/><circle cx="23.956" cy="23.956" r="3.63"/></symbol><symbol id="icon-view-selector-small-tab" viewBox="0 0 28 18"><title>view-selector-small-tab</title><circle cx="3.63" cy="3.63" r="3.63"/><circle cx="13.794" cy="3.63" r="3.63"/><circle cx="3.63" cy="13.793" r="3.63"/><circle cx="13.794" cy="13.793" r="3.63"/><circle cx="23.63" cy="3.63" r="3.63"/><circle cx="23.63" cy="13.793" r="3.63"/></symbol><symbol id="icon-view-selector-small" viewBox="0 0 37 27"><title>view-selector-small</title><ellipse cx="3.589" cy="3.553" rx="3.589" ry="3.553"/><ellipse cx="13.637" cy="3.553" rx="3.589" ry="3.553"/><ellipse cx="23.686" cy="3.553" rx="3.589" ry="3.553"/><ellipse cx="3.589" cy="13.5" rx="3.589" ry="3.553"/><ellipse cx="13.637" cy="13.5" rx="3.589" ry="3.553"/><ellipse cx="23.686" cy="13.5" rx="3.589" ry="3.553"/><ellipse cx="3.589" cy="23.447" rx="3.589" ry="3.553"/><ellipse cx="13.637" cy="23.447" rx="3.589" ry="3.553"/><ellipse cx="23.686" cy="23.447" rx="3.589" ry="3.553"/><ellipse cx="33.249" cy="3.553" rx="3.589" ry="3.553"/><ellipse cx="33.249" cy="13.5" rx="3.589" ry="3.553"/><ellipse cx="33.249" cy="23.447" rx="3.589" ry="3.553"/></symbol><symbol fill="none" id="icon-zoom-icon" viewBox="0 0 24 24"><title>zoom-icon</title><path d="m21.751 20.689-5.664-5.664a8.263 8.263 0 1 0-1.06 1.06l5.664 5.665 1.06-1.061ZM3.001 9.749a6.75 6.75 0 1 1 6.75 6.75 6.758 6.758 0 0 1-6.75-6.75Z" fill="#fff"/><path d="M9.581 6.542h.553c.049 0 .074.025.074.074v6.482c0 .049-.025.073-.074.073H9.58c-.049 0-.073-.024-.073-.073V6.616c0-.05.024-.074.073-.074Z" fill="#fff"/><path d="M6.763 9.507h6.188c.049 0 .073.024.073.074v.552c0 .05-.024.074-.073.074H6.763c-.049 0-.074-.025-.074-.074v-.552c0-.05.025-.074.074-.074Z" fill="#fff"/></symbol></svg>